<?xml version="1.0" encoding="utf-8"?>
<!-- Generator: Adobe Illustrator 24.2.0, SVG Export Plug-In . SVG Version: 6.00 Build 0)  -->
<svg version="1.1" id="レイヤー_1" xmlns="http://www.w3.org/2000/svg" xmlns:xlink="http://www.w3.org/1999/xlink" x="0px"
	 y="0px" viewBox="0 0 809.9 118.5" style="enable-background:new 0 0 809.9 118.5;" xml:space="preserve">
<path id="パス_29" d="M298.1,73.3c15.2,18.3,33.9,33.3,55,44.2c4,1.9,5.1,0.5,7.6-2.1c5.8-6,12.2-11.3,18.5-16.8
	c2-1.5,4-2.9,6.1-4.1c-51.5-7.4-87.3-36.6-118.6-73.9c3.7-3.5,8.7-6.6,2.4-10.2c-6.8-3.9-14.2-6.9-21.6-10.5
	c-2.7,6.1-4.7,11.7-7.5,16.8c-12.5,21.9-28,41.9-45.9,59.7c-4.1,5.1-10.6,7.8-17.1,6.9c-3.8-0.3-7.6-0.3-11.3-0.1l-0.1,3.3l15.1,0.9
	l1.1,1.8l-32.6,26.8c1.7,0.2,3.3,0.2,5-0.1c17-6.3,32.9-15.1,47.3-26.2c2.2-1.6,4.8-2.6,7.5-2.7c24.2-0.2,48.4-0.1,72.6-0.1
	c2.1-0.2,4.2-0.6,6.3-1.1c-0.6-1.1-1.3-2.1-2-3c-3.1-2.9-6.1-5.8-9.3-8.6c-6.7-5.9-7.4-5.7-12.3,2c-2.2,3.5-3.9,7.2-9.5,7.1
	c-12.9-0.4-25.9-0.1-38.8-0.2c-1.1-0.1-2.1-0.3-3.2-0.6l50.9-58.8C272.8,41.9,284.4,58.5,298.1,73.3z M644.7,13.9
	c0.5,7.8,1.8,15.6,1.7,23.4c-0.3,22.9-1.1,45.8-1.8,68.7c-0.1,4.4-0.3,9.2,4.9,10.4c5,1.9,10.7-0.3,13-5.1c2-4.5,5-4.9,9.1-4.9
	c26.1,0.1,52.2-0.2,78.3,0.2c11,0.2,21.9-1.6,32.3-5.3c21.2-7,32.7-29.9,25.7-51c-0.6-1.8-1.3-3.5-2.1-5.2
	c-10.1-20.2-29-26.4-49.4-27.6c-21.8-1.3-43.7-0.3-65.6-0.2c-2.2,0.1-4.3,0.4-6.5,0.7l-0.4,2.4c2.3,0.9,4.7,1.5,7.2,1.8
	c21.4,0.2,42.9,0.1,64.3,0.1c9.1-0.2,17.5,5,21.4,13.3c6.7,12.9,7.7,28.1,2.6,41.7c-5.6,16.4-13.6,25.3-32.6,25.1
	c-25.7-0.2-51.4-0.2-77,0c-4.9,0-6.2-1.9-6.2-6.4c-0.1-18.5-0.9-36.9-0.7-55.4c0.1-9.3-3.4-19.7,7.8-27.8l-25.8-7.8
	C644.7,8.9,644.6,11.4,644.7,13.9L644.7,13.9z M463.3,21c0.5,2.3,1.3,4.5,2.2,6.6c13,23.8,29.9,45.3,49.9,63.5
	c11,10.9,23.7,19.8,37.7,26.5c3.8,1.7,5.6,1.4,7.5-2.3c4.2-7.4,10.7-13.2,18.5-16.6c1.9-1.3,3.7-2.8,5.4-4.5c-3.9-0.4-5.9-0.7-8-0.9
	c-6-0.7-9-3-8.9-10.1c0.4-16.3-0.3-32.6-0.5-49c-0.1-7.2-2-15,7.6-21.1l-25.9-7.7v79.8c-34.3-14.3-60.2-38.1-83.3-65.7L463.3,21z
	 M2,18.2C2.1,47.5,1.9,76.8,2.1,106c0,3.4,1.1,8.4,3.4,9.8c4,2.5,9.2,1.4,11.8-2.6c0.1-0.2,0.3-0.5,0.4-0.7c3.3-7.9,9.4-6,15.1-6.1
	c5.3-0.1,10.6,0,15.9,0c19.5,0,39.1,0.1,58.6-0.1c2.2-0.3,4.3-0.8,6.4-1.6c-1-1.9-2.2-3.7-3.6-5.4c-2.5-2.6-5.4-4.7-8.2-7.1
	c-5.9-5.2-5.9-5.1-10.3,1.5c-2.3,3.5-3.6,7.8-9.6,7.7c-18.9-0.4-37.8-0.2-56.7-0.1c-3.8,0-5.3-1-5.3-5c0.1-24.2-0.1-48.4,0.1-72.6
	c0.2-2.4,1.2-4.7,2.9-6.4c3.2-3.1,2.1-4.8-1.3-5.9C15,9.2,8.2,7.3,0,4.8C1,9.2,1.7,13.7,2,18.2L2,18.2z M432.8,26.5
	c0.1,27.1-0.2,54.3,0,81.4c0,2.7,1.1,7,2.8,7.6c3.3,0.9,6.9,0.6,10.1-0.7c4.1-1.5,5.3-5.2,5.2-9.8c-0.2-26.7-0.2-53.4,0-80.1
	c-0.1-2.6,0.7-5.2,2.4-7.2c4.3-3.6,2.3-5.4-1.4-6.6c-6.5-2.2-13.2-3.9-20.5-6C432,12.8,432.8,19.7,432.8,26.5L432.8,26.5z"/>
</svg>
