<?xml version="1.0" encoding="utf-8"?>
<!-- Generator: Adobe Illustrator 24.3.0, SVG Export Plug-In . SVG Version: 6.00 Build 0)  -->
<svg version="1.1" id="レイヤー_1" xmlns="http://www.w3.org/2000/svg" xmlns:xlink="http://www.w3.org/1999/xlink" x="0px"
	 y="0px" viewBox="0 0 472 600" style="enable-background:new 0 0 472 600;" xml:space="preserve">
<style type="text/css">
	.st0{fill:#FFFFFF;}
</style>
<g id="パス_28">
	<path class="st0" d="M61.1,0v7c0,132.1,0,264.3,0,396.4c0,5.5,0,5.5,5.3,5.5l395.7,0h7.7c-0.6,1-1.3,1.9-2,2.8
		c-18.5,18.5-37.1,37-55.7,55.5c-1.5,1.5-3.6,2.4-5.7,2.5c-134.2,0.1-268.5,0.2-402.8,0.2c-2.7,0-3.9-0.7-3.6-3.5
		c0.1-1.4,0.1-2.7,0-4.1C0.1,329.8,0.1,197.4,0,65c-0.1-3.1,1.1-6,3.4-8.1C21.7,38.8,39.9,20.7,58,2.4C58.7,1.7,59.5,1.2,61.1,0z
		 M174.1,573.6c9.2,10.4,19.3,19.7,32.1,25.8c2.4,1.1,3,0.3,4.4-1.2c3.4-3.5,7.1-6.6,10.8-9.8c1.1-0.9,2.3-1.7,3.6-2.4
		c-30-4.3-50.9-21.4-69.2-43.1c2.2-2,5.1-3.8,1.4-6c-4-2.3-8.3-4-12.6-6.1c-1.6,3.5-2.7,6.8-4.4,9.8c-7.3,12.8-16.3,24.5-26.8,34.8
		c-2.4,3-6.2,4.5-10,4c-2.2-0.2-4.4-0.2-6.6,0l-0.1,1.9l8.8,0.5l0.6,1l-19,15.6c1,0.1,1.9,0.1,2.9,0c9.9-3.7,19.2-8.8,27.6-15.3
		c1.3-1,2.8-1.5,4.4-1.5c14.1-0.1,28.2,0,42.3-0.1c1.2-0.1,2.5-0.3,3.7-0.7c-0.4-0.6-0.7-1.2-1.2-1.7c-1.8-1.7-3.6-3.4-5.4-5
		c-3.9-3.4-4.3-3.3-7.2,1.2c-1.3,2-2.3,4.2-5.5,4.1c-7.6-0.2-15.1-0.1-22.7-0.1c-0.6,0-1.2-0.2-1.8-0.3l29.7-34.3
		C159.4,555.3,166.1,565,174.1,573.6z M376.3,539c0.3,4.5,1,9.1,1,13.7c-0.2,13.3-0.7,26.7-1,40c-0.1,2.5-0.2,5.3,2.8,6.1
		c2.9,1.1,6.2-0.2,7.6-3c1.2-2.6,2.9-2.8,5.3-2.8c15.2,0.1,30.5-0.1,45.7,0.1c6.4,0.1,12.8-0.9,18.8-3.1c12.4-4.1,19-17.4,15-29.8
		c-0.3-1-0.8-2-1.2-3c-5.9-11.8-16.9-15.4-28.8-16.1c-12.7-0.7-25.5-0.2-38.2-0.1c-1.3,0.1-2.5,0.2-3.8,0.4l-0.2,1.4
		c1.4,0.5,2.8,0.9,4.2,1c12.5,0.1,25,0,37.5,0.1c5.3-0.1,10.2,2.9,12.5,7.8c3.9,7.5,4.5,16.4,1.5,24.3c-3.3,9.6-8,14.8-19,14.7
		c-15-0.1-30-0.1-44.9,0c-2.9,0-3.6-1.1-3.6-3.7c-0.1-10.8-0.5-21.5-0.4-32.3c0-5.4-2-11.5,4.5-16.2l-15.1-4.5
		C376.3,536.1,376.2,537.5,376.3,539L376.3,539L376.3,539z M270.5,543.1c0.3,1.3,0.8,2.6,1.3,3.9c7.6,13.9,17.4,26.4,29.1,37
		c6.4,6.3,13.8,11.6,22,15.4c2.2,1,3.2,0.8,4.4-1.3c2.5-4.3,6.2-7.7,10.8-9.7c1.1-0.8,2.2-1.6,3.1-2.6c-2.2-0.3-3.5-0.4-4.7-0.5
		c-3.5-0.4-5.3-1.7-5.2-5.9c0.3-9.5-0.2-19-0.3-28.6c0-4.2-1.2-8.7,4.4-12.3l-15.1-4.5v46.6c-20-8.3-35.1-22.2-48.6-38.3
		L270.5,543.1z M1.5,541.5c0.1,17.1-0.1,34.2,0,51.3c0,2,0.6,4.9,2,5.7c2.3,1.5,5.4,0.8,6.9-1.5c0.1-0.1,0.2-0.3,0.2-0.4
		c1.9-4.6,5.5-3.5,8.8-3.5c3.1-0.1,6.2,0,9.3,0c11.4,0,22.8,0,34.2,0c1.3-0.2,2.5-0.5,3.7-0.9c-0.6-1.1-1.3-2.2-2.1-3.2
		c-1.5-1.5-3.2-2.8-4.8-4.1c-3.5-3-3.4-3-6,0.8c-1.4,2-2.1,4.5-5.6,4.5c-11-0.2-22-0.1-33.1,0c-2.2,0-3.1-0.6-3.1-2.9
		c0.1-14.1-0.1-28.2,0.1-42.3c0.1-1.4,0.7-2.7,1.7-3.7c1.9-1.8,1.2-2.8-0.7-3.4c-3.9-1.3-7.9-2.4-12.7-3.9
		C0.9,536.2,1.3,538.8,1.5,541.5L1.5,541.5z M252.7,546.3c0.1,15.8-0.1,31.7,0,47.5c0,1.5,0.7,4.1,1.6,4.4c2,0.5,4,0.4,5.9-0.4
		c2.4-0.9,3.1-3,3.1-5.7c-0.1-15.6-0.1-31.2,0-46.8c-0.1-1.5,0.4-3,1.4-4.2c2.5-2.1,1.3-3.2-0.8-3.9c-3.8-1.3-7.7-2.3-11.9-3.5
		C252.3,538.3,252.7,542.3,252.7,546.3L252.7,546.3z"/>
</g>
</svg>
