<?xml version="1.0" encoding="utf-8"?>
<!-- Generator: Adobe Illustrator 24.3.0, SVG Export Plug-In . SVG Version: 6.00 Build 0)  -->
<svg version="1.1" id="レイヤー_1" xmlns="http://www.w3.org/2000/svg" xmlns:xlink="http://www.w3.org/1999/xlink" x="0px"
	 y="0px" viewBox="0 0 600 516.2" style="enable-background:new 0 0 600 516.2;" xml:space="preserve">
<style type="text/css">
	.st0{fill:#BFA94D;}
</style>
<g>
	<g>
		<path d="M384,191l-0.7,0.2c0,34.2-5.4,76.9-53.4,94.6l-0.7-0.9c13.4-8.8,23.1-23.6,26.7-29.4c14.1-22.9,14.7-54.7,14.7-58.6
			c0-9.9-1.3-13.6-2-15.8l18.4,4c0.9,0.2,2.2,0.6,2.2,1.7c0,1.9-2.5,2.9-3.4,3.4L384,191z"/>
		<g>
			<path d="M573.5,205.4c0.5,0.2,1.3,0.8,1.3,1.8c0,1.5-1.4,2.1-4.7,3.3c-4.1,11.8-9.5,23.2-17,33.3c7.7,3.9,19.1,11.1,19.1,19.3
				c0,2.6-2.3,7.1-6.3,7.1c-2.5,0-4.3-1.8-7-5.2c-7-8.7-8.7-10-12.4-13.2c-13.6,14.5-27,19.8-32,21.7l-0.5-0.8
				c12.8-8.1,21.9-20.6,25.6-25.8c-10.2-6.7-19.9-10.5-23.6-11.9l0.2-0.9c13.3,1.5,21.5,3.9,27.7,6c8.2-13.8,15.1-32.2,15-41.8
				L573.5,205.4z M515.8,203.6c5.7,2.9,9.3,5,11.8,8c2.7,3.1,4.5,7.1,4.5,9.8c0,2.1-1.5,7-6.2,7c-5,0-5.4-3.2-6.3-11.3
				c-0.1-0.9-0.9-7-4.5-12.7L515.8,203.6z M532,198.9c3.5,1.7,17.1,8,17.1,17.9c0,3.4-2,7-6.1,7c-5.2,0-5.7-4.8-6.1-7.5
				c-0.8-6.3-2.3-11.4-5.6-16.5L532,198.9z"/>
			<path d="M588.4,404.8c-15.2-4.8-28.7-15.9-37.5-30.4c0,7.2,0,15.6,0.2,21.8c0,0.4,0.1,4.6,0.1,5.4c0,6.6-7,6.6-7.5,6.6
				c-4.8,0-4.8-2.8-4.8-4.5c0-3.8,0.4-19.9,0.5-23.2c-4,4.4-10.6,9.7-18.8,14.2c-12.4,6.7-23.5,9.6-28.4,10.7l-0.4-0.8
				c17.9-9.4,30.4-21.5,37.4-31.7h-22.6c-7.2,0-9.7,0.2-12.7,0.8l-2-4.4c7.2,0.6,15.5,0.7,16.8,0.7h30.6c0-3.7,0-7.8-0.2-11.4
				c-14.2,5.2-27.1,5.7-36.9,5.4v-0.9c14.1-2,27.8-6.7,39.8-14.7c-2.5-0.8-6.5-2.1-14.7-3.9c-3.9,5.9-4.2,6.4-7.6,6.4
				c-2.6,0-7.3-1.1-7.3-3.9c0-0.9,0.8-2.6,1.6-3.5c3.3-4.2,4.6-5.5,7.9-10.5h-15.5c-7.2,0-9.7,0.4-12.7,0.8l-1.9-4.4
				c7.2,0.7,15.4,0.7,16.7,0.7h15.2c2.2-3.4,6.1-9.8,7.5-14.6h-19.7c0.2,10.4-4.9,14.3-9.5,14.3c-5.3,0-6.9-3.9-6.9-6.1
				c0-3.1,1.9-4.2,4.1-5.7c4.6-2.8,8.6-8,9.6-12h0.9c1.1,3.9,1.2,4.2,1.4,6.7h27c0-5.4-0.4-8.6-2-13.2l16.7,3.2
				c1.4,0.2,1.6,0.9,1.6,1.3c0,1.1-2.5,2.6-3.9,3.5c-0.2,2.4-0.2,2.6-0.4,5.2h21.3l4.9-5.2c0.7-0.7,1.2-0.9,1.5-0.9
				c0.5,0,0.8,0.4,1.5,0.9l10.4,8.7c0.6,0.5,0.9,1.1,0.9,1.8c0,1.8-1.1,1.9-3.8,1.9c-0.7,0-3.1,0.1-5.9,1.4
				c-2,0.9-10.7,5.4-12.6,6.3l-0.7-0.7c2.5-5.4,2.9-7.9,3.6-11.3h-37.1l9.1,5.2c0.5,0.2,1.2,0.9,1.2,1.5c0,1.1-0.8,1.8-4.6,2.4
				c-0.8,1.3-1.2,1.7-3.6,5.5h41.6l5.2-7.1c0.6-0.7,1.1-1.4,1.8-1.4s1.2,0.6,2.1,1.3l8.4,7c0.7,0.6,1.2,1.2,1.2,1.9
				c0,1.1-1.1,1.2-1.8,1.2H567l6.3,3.5c0.8,0.5,0.9,0.9,0.9,1.4c0,1.2,0,1.7-5.6,2.4c-3.1,2.9-4.9,4.5-7.6,6.5
				c14.4,3.9,18.6,7.4,18.6,11.9c0,4.4-3.9,5.8-6,5.8c-1.9,0-3.3-0.6-5.9-2.5c-3.8-2.7-8.1-5.9-15.6-9.4c-4.9,2.7-7.5,3.9-9.9,4.8
				L553,360c0.8,0.2,1.9,0.5,1.9,1.3c0,1.1-0.5,1.4-4.2,4.1v4.8h27.1l6-7.4c1.1-1.4,1.3-1.5,1.9-1.5c0.5,0,0.7,0.1,2.2,1.3l9.6,7.4
				c0.6,0.5,1.2,1.1,1.2,1.8c0,1.1-0.9,1.3-1.8,1.3h-44.6c11.8,9.4,32.3,18.2,47.5,18.6v0.9C593.8,394.3,589.6,399.3,588.4,404.8z
				 M534.9,332.9c-1.4,2.2-4.1,6.3-6.1,9.4c2.7,0,8.8,0,19.1,1.7c5.5-4.5,8.3-8,10.3-11.1H534.9L534.9,332.9z"/>
		</g>
		<g>
			<path d="M349.4,305.5l-1.2,2.7v0.1h16.4v11.3h-16.4v2.7v0.1h16.4v12.3h-16.4v2.7v0.1h16.3c-0.1,1.2-0.6,5.3,4.1,5.3
				c0.4,0,7.2-0.1,7.2-5.1c0-1.3-0.4-7.9-0.4-9.4c0-6.6,0-11.8,0.1-15.8c3.1-1.9,4-3.1,4-4.2c0-0.8-0.4-1.3-0.9-1.8l-8-6
				c-0.5-0.4-1.1-0.7-1.6-0.7c-0.7,0-1.3,0.8-1.6,1.3l-3.5,4.4H349.4L349.4,305.5z"/>
			<path d="M385.5,338.5c0,1.8,0.2,4.6,4,4.6c0.6,0,7.7,0,7.7-5.4H416v-2.8h-18.9v-12.3H416v-2.8h-18.9v-11.3H416l-0.9-2.8h-16.7
				l-13.3-5.8c0.5,6.7,0.6,8.3,0.6,27.4C385.8,328.8,385.5,336.7,385.5,338.5z"/>
			<path d="M400.7,385.4c0-3.8-0.6-22.8-0.5-27c2.2-1.8,3.5-2.8,3.5-4.2c0-0.8-0.8-1.3-1.2-1.7l-6.3-5c-0.8-0.6-1.4-1.2-2.2-1.2
				c-1.2,0-1.6,1.1-2,1.7l-2.3,3.8H372l-11.8-4.1c0.8,6,0.8,16.5,0.8,19v11.4c0,1.5-0.6,9.1-0.6,10.9c0,3.1,1.9,3.8,4.3,3.8
				c7,0,6.8-3.5,6.7-7.1h18.1c-0.1,3.3-0.2,5.4,3.2,5.4c0.4,0,2.8,0,5.2-0.9l1.3-0.8C400.1,388.5,400.7,387.4,400.7,385.4z
				 M389.6,382.8h-18.2v-13.3h18.2V382.8z M389.6,366.7h-18.2v-12h18.2V366.7z"/>
		</g>
		<g>
			<path d="M262.5,243.8c-0.1,3.1-0.2,9.9,0.2,23.4c0,1.8,0.4,10.5,0.4,11c0,4.8-4.1,6.6-8.6,6.6c-4.9,0-4.8-2.1-4.7-9.1H184
				c0,0.9,0.2,3.2,0.2,4.2c0,6-7,6.4-8.3,6.4c-5,0-5-2.7-5-4.6c0-4.7,0.6-25.5,0.6-29.7c0-8-0.2-10.5-1.6-16.3l16,3.2
				c0.7,0.1,2.2,0.5,2.2,1.7c0,1.7-2.6,2.8-4,3.5c-0.1,4.4-0.1,23.2,0,28.8H211v-32.3c0-7.7,0-10.9-0.1-12.9h-19.6
				c0,1.1,0,2.1-0.6,3.2c-1.1,1.7-4.7,3.1-8.2,3.1c-4.3,0-4.3-2.6-4.3-4.1c0-3.7,0.4-19.7,0.4-22.9c0-8.1-0.1-10.9-2-18.9l16.3,3.9
				c1.1,0.2,2.1,0.6,2.1,1.7c0,1.9-2.7,3.2-3.6,3.7c-0.2,6.6-0.2,7.9-0.1,27.6H211c0-4.4-0.1-23.5-0.2-27.4
				c-0.4-10.1-1.4-13.8-2.5-17.1l17.7,4.4c0.9,0.2,2.1,0.6,2.1,1.5c0,1.8-2.6,3.1-4.3,3.5c-0.1,1.7-0.2,9.1-0.2,10.6v24.4h20.6
				c0.5-8.5,0.4-27.4-1.9-35.5l16.3,3.9c1.1,0.2,2,0.6,2,1.7c0,1.4-2.1,2.6-3.9,3.3c0,3.4-0.1,10.5-0.1,15.3
				c0,2.1,0.4,11.7,0.4,13.6c0,4-4.1,6.4-8.3,6.4c-4.8,0-4.8-2.9-4.7-5.8h-20.4v45.1h26.5c-0.2-5.7-0.1-13.7-0.1-16.5
				c0-13.8-0.7-17.1-1.6-21.3l16,3.7c0.8,0.2,2.1,0.2,2.1,1.4C266.4,241.4,264.8,242.8,262.5,243.8z"/>
			<path d="M263.6,363.3h-47.9c-5.4,9.7-14.7,21.1-17.7,24.5c27.7-1.4,33.5-1.7,41.3-2.8c-4.3-6.7-8.7-11.2-12.6-15.1l0.6-0.8
				c5.3,1.7,32.5,11.1,32.5,27.8c0,3.7-2.9,7.7-7.4,7.7c-4.2,0-6.1-3.2-7.5-7.2c-1.5-4.5-2.2-6.5-4.3-10.3
				c-11,3.8-39.5,12-56.9,15.2c-0.6,1.8-1.1,2.9-2.2,2.9c-1.2,0-1.6-1.1-2.1-2l-7.2-15.8c3.6,0.7,6.3,1.2,10.6,1.2
				c0.9,0,6.3-0.4,10.4-0.5c2.6-6.4,5.4-17.7,6.7-24.9h-16.4c-8.1,0-10.4,0.4-12.7,0.8l-2-4.4c5.6,0.5,11.1,0.7,16.8,0.7h58.2l6.3-8
				c0.7-0.9,1.3-1.5,1.9-1.5c0.6,0,1.2,0.5,2.1,1.3l10.1,8c0.7,0.5,1.2,1.1,1.2,1.8C265.4,363.1,264.2,363.3,263.6,363.3z"/>
			<path d="M203.2,492.4c-0.5,1.7-0.7,2.6-0.7,3.3c0,1.3,1.6,6.8,1.6,7.9c0,3.3-2.3,5.4-5.6,5.4c-5.7,0-22.3-8-23.6-41.2
				c-0.1-2.7-0.4-14.6-0.6-17.1c-0.8-8.3-2.1-10.6-5.3-16.6c8.3,0.7,19,5.8,19,15.3c0,1.3-0.4,2.4-0.6,3.7
				c-1.6,7.2-2.9,13.4-2.9,19.6c0,11.1,5.3,18.6,7.5,18.6c1.5,0,4.5-3.8,6.1-6c4-5.3,12.8-17.9,15-21.5l0.8,0.4
				C213.1,466.5,203.3,491.9,203.2,492.4z M257.8,489.9c-2,0-2.6-0.6-7.4-5.9c-3-3.4-12.6-5.1-15.1-5.5v-0.8
				c0.9-0.1,11.8-1.3,13.1-1.8c0.7-0.2,1.9-1.1,1.9-3.2c0-2-1.6-9.4-5.6-16.2c-4-6.6-9.4-11.3-12.8-14c15.4-0.2,32.7,18.2,32.7,35.2
				C264.6,484.6,260.9,489.9,257.8,489.9z"/>
		</g>
		<g>
			<path d="M103.7,223.9H52.3l4.2,2.5c1.1,0.6,1.2,0.9,1.2,1.3c0,1.5-1.6,1.8-5.2,2.2c-4.7,3.5-7.4,5.5-11.1,7.7
				c1.4,0.9,5.5,3.3,5.5,8c0,2.8-2.2,6.4-6,6.4c-4,0-5.6-2.6-8.3-6.6c-2.9-4.5-8.3-10.5-12.7-13.3l0.1-0.8c10,1.9,14.1,3.3,16.8,4.4
				c2.1-5.2,3.2-7.8,4.2-11.7H14.5c-7.2,0-9.7,0.2-12.7,0.7L0,220.3c7,0.6,15.4,0.7,16.7,0.7h29.8c0-1.8,0.1-9.6,0.1-11.2H28.2
				c-7.2,0-9.7,0.4-12.7,0.8l-1.9-4.4c7.2,0.7,15.4,0.7,16.7,0.7h16.3V197H20.3c-7.2,0-9.7,0.4-12.7,0.8l-2-4.4
				c7.2,0.7,15.5,0.7,16.8,0.7h24c-0.4-5-0.5-5.9-2.3-13.9l16.2,3.3c1.2,0.2,2,1.1,2,1.8c0,1.2-0.7,1.7-3.5,3.5v5.3h23l4.3-7.3
				c0.4-0.6,1.1-1.5,1.8-1.5c0.9,0,1.5,0.7,2.2,1.3l8.1,7.4c0.7,0.6,1.2,1.1,1.2,1.8c0,1.1-1.1,1.2-1.8,1.2H58.8v9.9H75l4-6.4
				c0.9-1.4,1.4-1.5,1.9-1.5c0.6,0,1.4,0.6,2.1,1.2l7.5,6.5c0.7,0.6,1.2,1.1,1.2,1.9c0,1.1-0.9,1.2-1.8,1.2H58.8V221H87l4.8-7.3
				c0.2-0.2,1.2-1.5,1.9-1.5c0.6,0,1.4,0.7,2.1,1.3l8.7,7.3c0.5,0.5,1.2,0.9,1.2,1.8C105.6,223.6,104.5,223.9,103.7,223.9z
				 M35.2,274.2C21,283,13,286.5,1.5,288.8L1.3,288c5.6-3.4,18.8-12,26.2-25l11.7,7.4c0.7,0.5,1.4,0.9,1.4,1.9
				C40.6,274.1,36.6,274.2,35.2,274.2z M94.5,265.6c-2.6,0-4.5-1.9-6.7-5c-0.8-1.1-4.5-6.1-5.4-7.1c-3.9,0.6-21,3.3-24.4,3.9
				c0,4.2,0.2,22.6,0,26.4c-0.2,6-6.8,6-7.4,6c-4.6,0-4.6-3.2-4.6-4.6c0-4.1,0.4-22.4,0.4-26.1c-5,0.6-27.4,3.8-32,4.1
				c-0.4,0.7-1.6,3.2-3.1,3.2c-0.9,0-1.8-1.2-2-1.8l-5.5-13.5c8.8,1.7,17.6,1.7,23.3,1.7c7.7,0,15.2-0.2,22.9-0.5
				c4.3-4.5,16.9-19.1,18.6-27l13.1,7.4c1.1,0.6,1.4,1.3,1.4,1.9c0,2.2-2.8,2.2-5.4,2.1c-9.5,6.8-10.8,7.7-23.2,15.3
				c4.1-0.2,21.8-1.2,25.3-1.4c-3.9-3.9-5.4-4.7-7.4-5.8v-1.1c7.3,0.6,15.6,2.2,20.8,5.5c4.5,2.8,7.5,6.6,7.5,9.4
				C100.8,260.4,99.5,265.6,94.5,265.6z M91.5,286.3c-3.6,0-6.2-2.9-9-6.3c-4.1-4.7-10.8-10.4-17.9-14.2l-0.2-0.6
				c12.7,0.2,33.5,4.5,33.5,14.7C97.9,282.7,96.2,286.3,91.5,286.3z"/>
			<path d="M102.5,317.5H59.1c0,0.9,0,8.8,0.1,13.2h14.1l2.9-3.8c0.8-1.1,1.5-2,2.3-2c0.7,0,1.8,0.8,2.5,1.3l6,4.2
				c1.1,0.8,2.3,1.8,2.3,3.1c0,1.4-1.4,2.5-4.1,4.4c-0.1,7.1,0.4,38.3,0.4,44.7c0,6.8-6.9,6.8-7.7,6.8c-4.3,0-4.2-2.6-4.2-4.6h-30
				c-0.1,6-6.1,6.4-7.2,6.4c-2.6,0-5.4-0.9-5.4-4.8c0-1.5,0.4-8.1,0.4-9.6c0.1-7.2,0.2-14.3,0.2-21.5c0-21.3-0.5-24.7-1.2-29
				l13.1,4.4h3.8c0-2,0.1-11.3,0.1-13.2H16c-7.2,0-9.7,0.4-12.7,0.8l-1.9-4.4c7.2,0.7,15.4,0.7,16.7,0.7h29.3
				c-0.1-9.1-0.7-10.9-2.6-16l15.6,3.8c1.6,0.4,2.8,0.8,2.8,2.1c0,0.9-0.4,1.5-4,3.2v7h26.6l4.5-7.4c0.4-0.6,1.1-1.5,1.8-1.5
				c0.5,0,1.2,0.6,2.1,1.3l8.9,7.4c0.6,0.5,1.2,1.1,1.2,1.9C104.3,317.4,103.3,317.5,102.5,317.5z M73.8,333.6H43.6v13.8h30.1v-13.8
				H73.8z M73.8,350.2H43.6v13.7h30.1v-13.7H73.8z M73.8,366.7H43.6V382h30.1v-15.3H73.8z"/>
		</g>
	</g>
	<g>
		<path class="st0" d="M348.1,308.3v11.3v2.8v12.3v2.8c0.1,5.2,0.1,31.4,0.1,38.1c0,10.3,0,14.5,0.2,19.7c0,1.1,0.2,2.6,0.2,3.4
			c0,5.9-7.7,6.1-8.7,6.1c-4,0-4-2.6-4-3.7c0-2,0.6-13.1,0.6-15.6c0.4-12.6,0.5-16.5,0.5-71.2c0-7.2-0.4-9.7-1.3-14.9l13.6,5.9
			L348.1,308.3z M399.1,389.3c1.9,0.2,11.1,0.8,13.4,0.8c2.8,0,3.2-1.2,3.4-2.1c0.2-0.8,0.2-23.8,0.2-25.7c0-1.8-0.1-24.5-0.1-24.7
			v-2.8v-12.3v-2.8v-11.3l-0.9-2.8l3.4-4.6c0.5-0.7,1.2-1.4,2.1-1.4c0.7,0,1.3,0.4,1.8,0.7l7.9,6.3c0.5,0.4,1.5,1.4,1.5,2
			c0,1.4-1.8,2.7-4,4.6V355c0,5.2,0.4,28.2,0.4,32.8c0,8.1,0,15.2-16.9,18.2c-1.4-5.2-3-11-13.4-15.7L399.1,389.3z"/>
		<path class="st0" d="M385.9,190.2c1.6,21.1,9.7,46,21.7,61.2c9.4,11.9,19.9,17.8,27.9,21.7v0.8c-6.6,2.6-11,4.4-15.7,13
			C399.5,272.4,383,240.7,384,191L385.9,190.2z"/>
		<path class="st0" d="M260.5,347.7c-18.3-7.7-32.7-22.3-40.7-40.6c-11.7,18.6-34,37.2-55.5,44.6l-0.5-0.8
			c24.4-17.2,41.2-43.1,43.9-54.6l15.2,4.8c0.9,0.4,2.3,0.9,2.3,2c0,1.3-1.3,1.8-3.8,2.5c6.8,10.1,24.7,24.2,50.3,28.3v0.8
			C264,338.7,262.5,342.5,260.5,347.7z M237.9,343.2h-34.4c-7.2,0-9.7,0.2-12.7,0.7l-1.9-4.2c7,0.6,15.4,0.7,16.7,0.7H220l5.9-7.7
			c0.6-0.8,1.2-1.4,1.8-1.4c0.7,0,1.6,0.7,2.2,1.3l8.6,7.5c0.7,0.6,1.2,1.1,1.2,1.8C239.7,343,238.6,343.2,237.9,343.2z"/>
		<path class="st0" d="M577.2,189.7l4.6-5.4c0.7-0.8,1.1-1.2,1.5-1.2c0.5,0,0.9,0.5,1.9,1.2l9,7.1c0.7,0.5,1.1,1.2,1.1,1.8
			c0,1.5-3.2,3.3-5.4,4.6c0,13,0.2,70.5,0.2,82.3c0,5.9-4.8,6.8-7.6,6.8c-2.9,0-4.7-0.9-4.7-4.4c0-0.5,0.1-1.4,0.1-2.5h-68.3
			c0.1,2.5,0.1,3.5-1.1,5c-1.5,1.8-3.8,2.9-6.2,2.9c-5.2,0-5.2-2.9-5.2-5.1c0-1.9,0.4-10.4,0.4-12.1c0.4-17.9,0.5-35.7,0.5-53.7
			c0-15,0-27.2-0.9-34l13.7,6.6L577.2,189.7L577.2,189.7z M509.7,192.5v84.7h68.4v-84.7L509.7,192.5L509.7,192.5z"/>
		<path class="st0" d="M103.1,400.1H21.6c0,2.2,0,2.9-0.7,3.9c-0.5,0.7-3.1,3.5-6.9,3.5c-5.2,0-5.2-3.3-5.2-4.6
			c0-1.4,0.4-7.8,0.4-9.1c0.2-11.2,0.5-23.6,0.5-31.8c0-23.1-0.6-25.5-1.9-31.1l14.4,4.1c1.1,0.4,2.8,0.7,2.8,2
			c0,1.4-1.6,2.5-3.8,3.8c-0.2,8.4-0.1,20.8,0,29.5c0.1,7.5,0.2,19.6,0.2,27H86l5.2-7.8c0.5-0.7,1.1-1.5,1.8-1.5
			c0.6,0,1.4,0.6,2.1,1.3l8.7,7.8c0.8,0.8,1.2,1.4,1.2,1.9C104.9,400,103.8,400.1,103.1,400.1z"/>
	</g>
</g>
<g>
	<path id="パス_29" class="st0" d="M228.6,51.7c10.7,12.9,23.8,23.4,38.6,31c2.8,1.3,3.6,0.4,5.3-1.5c4.1-4.2,8.6-7.9,13-11.8
		c1.4-1.1,2.8-2,4.3-2.9c-36.2-5.2-61.3-25.7-83.3-51.9c2.6-2.5,6.1-4.6,1.7-7.2c-4.8-2.7-10-4.8-15.2-7.4
		c-1.9,4.3-3.3,8.2-5.3,11.8c-8.8,15.4-19.7,29.4-32.2,41.9c-2.9,3.6-7.4,5.5-12,4.8c-2.7-0.2-5.3-0.2-7.9-0.1l-0.1,2.3l10.6,0.6
		l0.8,1.3L124,81.7c1.2,0.1,2.3,0.1,3.5-0.1c11.9-4.4,23.1-10.6,33.2-18.4c1.5-1.1,3.4-1.8,5.3-1.9c17-0.1,34-0.1,51-0.1
		c1.5-0.1,2.9-0.4,4.4-0.8c-0.4-0.8-0.9-1.5-1.4-2.1c-2.2-2-4.3-4.1-6.5-6c-4.7-4.1-5.2-4-8.6,1.4c-1.5,2.5-2.7,5.1-6.7,5
		c-9.1-0.3-18.2-0.1-27.2-0.1c-0.8-0.1-1.5-0.2-2.2-0.4l35.7-41.3C210.8,29.6,219,41.3,228.6,51.7z M472,10c0.4,5.5,1.3,11,1.2,16.4
		c-0.2,16.1-0.8,32.2-1.3,48.2c-0.1,3.1-0.2,6.5,3.4,7.3c3.5,1.3,7.5-0.2,9.1-3.6c1.4-3.2,3.5-3.4,6.4-3.4c18.3,0.1,36.7-0.1,55,0.1
		c7.7,0.1,15.4-1.1,22.7-3.7c14.9-4.9,23-21,18-35.8c-0.4-1.3-0.9-2.5-1.5-3.7c-7-14.1-20.2-18.5-34.6-19.3
		c-15.3-0.9-30.7-0.2-46.1-0.1c-1.5,0.1-3,0.3-4.6,0.5l-0.3,1.7c1.6,0.6,3.3,1.1,5.1,1.3c15,0.1,30.1,0.1,45.2,0.1
		c6.4-0.1,12.3,3.5,15,9.3c4.7,9.1,5.4,19.7,1.8,29.3c-3.9,11.5-9.6,17.8-22.9,17.6c-18-0.1-36.1-0.1-54.1,0c-3.4,0-4.4-1.3-4.4-4.5
		c-0.1-13-0.6-25.9-0.5-38.9c0.1-6.5-2.4-13.8,5.5-19.5L472,3.8C472,6.5,471.9,8.2,472,10L472,10z M344.6,15
		c0.4,1.6,0.9,3.2,1.5,4.6c9.1,16.7,21,31.8,35,44.6c7.7,7.7,16.6,13.9,26.5,18.6c2.7,1.2,3.9,1,5.3-1.6c2.9-5.2,7.5-9.3,13-11.7
		c1.3-0.9,2.6-2,3.8-3.2c-2.7-0.3-4.1-0.5-5.6-0.6c-4.2-0.5-6.3-2.1-6.2-7.1c0.3-11.4-0.2-22.9-0.4-34.4c-0.1-5.1-1.4-10.5,5.3-14.8
		L404.6,4v56c-24.1-10-42.3-26.8-58.5-46.1L344.6,15z M20.7,13c0.1,20.6-0.1,41.2,0.1,61.7c0,2.4,0.8,5.9,2.4,6.9
		c2.8,1.8,6.5,1,8.3-1.8c0.1-0.1,0.2-0.4,0.3-0.5c2.3-5.5,6.6-4.2,10.6-4.3c3.7-0.1,7.4,0,11.2,0c13.7,0,27.5,0.1,41.2-0.1
		c1.5-0.2,3-0.6,4.5-1.1c-0.7-1.3-1.5-2.6-2.5-3.8C95,68.2,93,66.7,91,65c-4.1-3.7-4.1-3.6-7.2,1.1c-1.6,2.5-2.5,5.5-6.7,5.4
		c-13.3-0.3-26.5-0.1-39.8-0.1c-2.7,0-3.7-0.7-3.7-3.5c0.1-17-0.1-34,0.1-51c0.1-1.7,0.8-3.3,2-4.5c2.2-2.2,1.5-3.4-0.9-4.1
		c-5-1.6-9.8-3-15.5-4.7C20,6.7,20.5,9.8,20.7,13L20.7,13z M323.2,18.8c0.1,19-0.1,38.1,0,57.2c0,1.9,0.8,4.9,2,5.3
		c2.3,0.6,4.8,0.4,7.1-0.5c2.9-1.1,3.7-3.7,3.7-6.9c-0.1-18.7-0.1-37.5,0-56.2c-0.1-1.8,0.5-3.7,1.7-5.1c3-2.5,1.6-3.8-1-4.6
		c-4.6-1.5-9.3-2.7-14.4-4.2C322.6,9.2,323.2,14,323.2,18.8L323.2,18.8z"/>
</g>
</svg>
