<?xml version="1.0" encoding="utf-8"?>
<!-- Generator: Adobe Illustrator 24.2.0, SVG Export Plug-In . SVG Version: 6.00 Build 0)  -->
<svg version="1.1" id="レイヤー_1" xmlns="http://www.w3.org/2000/svg" xmlns:xlink="http://www.w3.org/1999/xlink" x="0px"
	 y="0px" viewBox="0 0 300 80.6" style="enable-background:new 0 0 300 80.6;" xml:space="preserve">
<style type="text/css">
	.st0{fill:#FFFFFF;}
</style>
<g id="グループ_98" transform="translate(-1316 -4149)">
	<path id="パス_1" class="st0" d="M1326.5,4149v1.2c0,22.7,0,45.3,0,68c0,0.9,0,0.9,0.9,0.9h67.9h1.3c-0.1,0.2-0.2,0.3-0.3,0.5
		c-3.2,3.2-6.4,6.3-9.6,9.5c-0.3,0.3-0.6,0.4-1,0.4c-23,0-46.1,0-69.1,0c-0.5,0-0.7-0.1-0.6-0.6c0-0.2,0-0.5,0-0.7
		c0-22.7,0-45.4,0-68.1c0-0.5,0.2-1,0.6-1.4c3.1-3.1,6.3-6.2,9.4-9.4C1326.1,4149.3,1326.2,4149.2,1326.5,4149z"/>
	<path id="パス_29" class="st0" d="M1496.9,4197.3c3.5,4.3,7.9,7.8,12.8,10.3c0.9,0.5,1.2,0.1,1.8-0.5c1.4-1.4,2.9-2.6,4.3-3.9
		c0.5-0.3,0.9-0.7,1.4-1c-12-1.7-20.3-8.5-27.6-17.2c0.9-0.8,2-1.5,0.6-2.4c-1.6-0.9-3.3-1.6-5-2.4c-0.6,1.4-1.1,2.7-1.7,3.9
		c-2.9,5.1-6.5,9.8-10.7,13.9c-1,1.2-2.5,1.8-4,1.6c-0.9-0.1-1.8-0.1-2.6,0l0,0.8l3.5,0.2l0.2,0.4l-7.6,6.2c0.4,0,0.8,0,1.2,0
		c4-1.5,7.7-3.5,11-6.1c0.5-0.4,1.1-0.6,1.7-0.6c5.6,0,11.3,0,16.9,0c0.5,0,1-0.1,1.5-0.3c-0.1-0.2-0.3-0.5-0.5-0.7
		c-0.7-0.7-1.4-1.4-2.2-2c-1.6-1.4-1.7-1.3-2.9,0.5c-0.5,0.8-0.9,1.7-2.2,1.7c-3-0.1-6,0-9,0c-0.2,0-0.5-0.1-0.7-0.1l11.9-13.7
		C1491,4190,1493.7,4193.8,1496.9,4197.3z M1577.6,4183.4c0.1,1.8,0.4,3.6,0.4,5.4c-0.1,5.3-0.3,10.7-0.4,16c0,1-0.1,2.1,1.1,2.4
		c1.2,0.4,2.5-0.1,3-1.2c0.5-1.1,1.2-1.1,2.1-1.1c6.1,0,12.2,0,18.2,0c2.6,0.1,5.1-0.4,7.5-1.2c4.9-1.6,7.6-6.9,6-11.9
		c-0.1-0.4-0.3-0.8-0.5-1.2c-2.4-4.7-6.8-6.1-11.5-6.4c-5.1-0.3-10.2-0.1-15.3-0.1c-0.5,0-1,0.1-1.5,0.2l-0.1,0.6
		c0.5,0.2,1.1,0.3,1.7,0.4c5,0,10,0,15,0c2.1,0,4.1,1.2,5,3.1c1.6,3,1.8,6.5,0.6,9.7c-1.3,3.8-3.2,5.9-7.6,5.9c-6-0.1-12,0-17.9,0
		c-1.1,0-1.4-0.4-1.5-1.5c0-4.3-0.2-8.6-0.2-12.9c0-2.2-0.8-4.6,1.8-6.5l-6-1.8C1577.6,4182.3,1577.5,4182.9,1577.6,4183.4
		L1577.6,4183.4z M1535.3,4185.1c0.1,0.5,0.3,1,0.5,1.5c3,5.5,7,10.5,11.6,14.8c2.6,2.5,5.5,4.6,8.8,6.2c0.9,0.4,1.3,0.3,1.7-0.5
		c1-1.7,2.5-3.1,4.3-3.9c0.5-0.3,0.9-0.7,1.3-1c-0.9-0.1-1.4-0.1-1.9-0.2c-1.4-0.2-2.1-0.7-2.1-2.3c0.1-3.8-0.1-7.6-0.1-11.4
		c0-1.7-0.5-3.5,1.8-4.9l-6-1.8v18.6c-8-3.3-14-8.9-19.4-15.3L1535.3,4185.1z M1428,4184.4c0,6.8,0,13.6,0,20.5c0,0.8,0.2,2,0.8,2.3
		c0.9,0.6,2.1,0.3,2.7-0.6c0-0.1,0.1-0.1,0.1-0.2c0.8-1.8,2.2-1.4,3.5-1.4c1.2,0,2.5,0,3.7,0c4.5,0,9.1,0,13.6,0
		c0.5-0.1,1-0.2,1.5-0.4c-0.2-0.4-0.5-0.9-0.8-1.3c-0.6-0.6-1.3-1.1-1.9-1.6c-1.4-1.2-1.4-1.2-2.4,0.3c-0.5,0.8-0.8,1.8-2.2,1.8
		c-4.4-0.1-8.8-0.1-13.2,0c-0.9,0-1.2-0.2-1.2-1.2c0-5.6,0-11.3,0-16.9c0-0.6,0.3-1.1,0.7-1.5c0.8-0.7,0.5-1.1-0.3-1.4
		c-1.6-0.5-3.2-1-5.1-1.5C1427.7,4182.4,1427.9,4183.4,1428,4184.4L1428,4184.4z M1528.2,4186.4c0,6.3,0,12.6,0,18.9
		c0,0.6,0.3,1.6,0.6,1.8c0.8,0.2,1.6,0.2,2.3-0.2c1-0.4,1.2-1.2,1.2-2.3c0-6.2,0-12.4,0-18.7c0-0.6,0.2-1.2,0.6-1.7
		c1-0.8,0.5-1.3-0.3-1.5c-1.5-0.5-3.1-0.9-4.8-1.4C1528,4183.2,1528.2,4184.8,1528.2,4186.4L1528.2,4186.4z"/>
</g>
</svg>
