<?xml version="1.0" encoding="utf-8"?>
<!-- Generator: Adobe Illustrator 24.2.0, SVG Export Plug-In . SVG Version: 6.00 Build 0)  -->
<svg version="1.1" id="レイヤー_1" xmlns="http://www.w3.org/2000/svg" xmlns:xlink="http://www.w3.org/1999/xlink" x="0px"
	 y="0px" viewBox="0 0 472 600" style="enable-background:new 0 0 472 600;" xml:space="preserve">
<style type="text/css">
	.st0{fill:#FFFFFF;}
</style>
<path id="パス_28" class="st0" d="M61.07,0v7.01c0,132.12,0,264.25,0,396.37c0,5.5,0,5.49,5.32,5.49l395.69,0.02h7.73
	c-0.6,0.96-1.27,1.88-1.99,2.75c-18.53,18.52-37.1,37.01-55.7,55.46c-1.54,1.48-3.56,2.36-5.69,2.49
	c-134.25,0.12-268.5,0.17-402.75,0.16c-2.73,0-3.94-0.71-3.62-3.54c0.08-1.36,0.09-2.72,0.02-4.08c0-132.37-0.02-264.74-0.07-397.11
	c-0.11-3.06,1.14-6.02,3.41-8.07c18.26-18.12,36.46-36.29,54.6-54.53C58.68,1.74,59.48,1.24,61.07,0z M174.12,573.63
	c9.25,10.37,19.32,19.7,32.06,25.79c2.36,1.13,2.98,0.26,4.44-1.23c3.38-3.47,7.14-6.59,10.79-9.79c1.15-0.87,2.34-1.67,3.58-2.41
	c-30.03-4.32-50.91-21.36-69.17-43.09c2.17-2.05,5.06-3.84,1.38-5.95c-3.98-2.28-8.27-4.03-12.59-6.1c-1.56,3.55-2.72,6.8-4.35,9.8
	c-7.31,12.75-16.31,24.46-26.76,34.81c-2.4,3-6.19,4.53-10,4.05c-2.2-0.15-4.4-0.16-6.6-0.05l-0.06,1.93l8.81,0.5l0.62,1.05
	l-19.02,15.64c0.96,0.11,1.93,0.1,2.89-0.03c9.91-3.66,19.21-8.81,27.57-15.27c1.27-0.95,2.79-1.49,4.37-1.55
	c14.11-0.11,28.22-0.03,42.33-0.06c1.24-0.12,2.47-0.34,3.68-0.65c-0.35-0.61-0.74-1.19-1.19-1.74c-1.79-1.69-3.58-3.4-5.44-5.02
	c-3.94-3.41-4.33-3.3-7.16,1.17c-1.29,2.04-2.31,4.23-5.51,4.13c-7.55-0.21-15.1-0.06-22.65-0.09c-0.62-0.04-1.24-0.16-1.84-0.35
	l29.68-34.29C159.35,555.3,166.13,564.99,174.12,573.63z M376.34,538.97c0.32,4.55,1.05,9.1,1,13.66
	c-0.18,13.35-0.66,26.7-1.05,40.04c-0.08,2.55-0.2,5.34,2.83,6.08c2.93,1.12,6.23-0.18,7.62-2.99c1.16-2.63,2.89-2.84,5.28-2.83
	c15.23,0.07,30.45-0.11,45.67,0.09c6.41,0.13,12.79-0.92,18.83-3.08c12.35-4.08,19.05-17.41,14.97-29.76
	c-0.34-1.04-0.76-2.05-1.24-3.04c-5.9-11.77-16.93-15.39-28.81-16.08c-12.71-0.74-25.47-0.18-38.23-0.14
	c-1.27,0.07-2.54,0.21-3.8,0.42l-0.24,1.42c1.35,0.52,2.76,0.87,4.2,1.05c12.5,0.09,25,0.05,37.5,0.08
	c5.33-0.12,10.23,2.93,12.47,7.77c3.94,7.52,4.49,16.37,1.53,24.32c-3.28,9.56-7.96,14.77-19.01,14.66
	c-14.97-0.14-29.95-0.09-44.93,0.02c-2.85,0.02-3.62-1.1-3.64-3.73c-0.09-10.77-0.51-21.53-0.42-32.28
	c0.04-5.43-1.96-11.46,4.52-16.22l-15.07-4.54c-0.01,2.17-0.1,3.63,0.01,5.08V538.97z M270.49,543.09c0.32,1.32,0.75,2.61,1.28,3.86
	c7.58,13.88,17.42,26.39,29.12,37.03c6.41,6.34,13.84,11.56,21.98,15.44c2.2,1,3.24,0.82,4.38-1.34c2.46-4.32,6.25-7.73,10.81-9.72
	c1.13-0.76,2.19-1.63,3.15-2.6c-2.25-0.26-3.47-0.39-4.68-0.54c-3.47-0.42-5.28-1.73-5.16-5.88c0.26-9.51-0.19-19.04-0.26-28.57
	c-0.03-4.2-1.18-8.73,4.42-12.31l-15.1-4.49v46.56c-20-8.34-35.13-22.24-48.61-38.31L270.49,543.09z M1.46,541.46
	c0.06,17.09-0.08,34.17,0.04,51.26c0.01,1.97,0.62,4.89,1.96,5.7c2.31,1.49,5.39,0.82,6.87-1.49c0.09-0.14,0.17-0.27,0.24-0.42
	c1.94-4.59,5.49-3.48,8.83-3.55c3.09-0.06,6.19,0,9.29,0c11.39,0,22.79,0.03,34.18-0.05c1.28-0.16,2.53-0.48,3.74-0.94
	c-0.59-1.12-1.3-2.17-2.1-3.15c-1.48-1.49-3.17-2.75-4.75-4.14c-3.45-3.03-3.43-2.99-6.02,0.85c-1.37,2.03-2.1,4.55-5.61,4.48
	c-11.03-0.23-22.04-0.13-33.06-0.05c-2.19,0.02-3.08-0.61-3.07-2.94c0.06-14.12-0.05-28.23,0.05-42.35c0.09-1.4,0.68-2.72,1.67-3.72
	c1.87-1.8,1.22-2.79-0.74-3.44c-3.94-1.29-7.94-2.42-12.69-3.86c0.57,2.57,0.96,5.17,1.16,7.79L1.46,541.46z M252.73,546.34
	c0.05,15.83-0.1,31.66-0.02,47.48c0,1.55,0.66,4.09,1.63,4.42c1.95,0.51,4.02,0.37,5.89-0.39c2.41-0.89,3.08-3.05,3.06-5.71
	c-0.12-15.58-0.12-31.16,0-46.75c-0.07-1.53,0.43-3.04,1.42-4.22c2.48-2.1,1.31-3.17-0.79-3.87c-3.82-1.27-7.72-2.27-11.94-3.48
	c0.27,4.51,0.74,8.51,0.75,12.5L252.73,546.34z"/>
</svg>
