<?xml version="1.0" encoding="utf-8"?>
<!-- Generator: Adobe Illustrator 24.2.0, SVG Export Plug-In . SVG Version: 6.00 Build 0)  -->
<svg version="1.1" id="レイヤー_1" xmlns="http://www.w3.org/2000/svg" xmlns:xlink="http://www.w3.org/1999/xlink" x="0px"
	 y="0px" viewBox="0 0 600 600" style="enable-background:new 0 0 600 600;" xml:space="preserve">
<path id="パス_28" d="M77.99,0.05V9c0,168.74,0,337.47,0,506.21c0,7.03,0,7.01,6.8,7.01l505.34,0.02H600
	c-0.77,1.22-1.62,2.39-2.54,3.5c-23.67,23.65-47.38,47.26-71.13,70.82c-1.97,1.89-4.55,3.01-7.27,3.18
	c-171.45,0.15-342.9,0.22-514.35,0.2c-3.5,0-5.03-0.92-4.62-4.52c0.11-1.74,0.11-3.48,0.02-5.21c0-169.05-0.03-338.11-0.1-507.16
	c-0.14-3.91,1.45-7.69,4.36-10.31C27.69,49.6,50.94,26.39,74.1,3.09C74.94,2.28,75.95,1.64,77.99,0.05z"/>
</svg>
